Coordinates
version=1
nRows=5
nColumns=40
inDegrees=yes

Units are S.I. units (second, meters, Newtons, ...)
Angles are in degrees.

endheader
time	pelvis_tilt	pelvis_list	pelvis_rotation	pelvis_tx	pelvis_ty	pelvis_tz	hip_flexion_r	hip_adduction_r	hip_rotation_r	knee_angle_r	knee_angle_r_beta	ankle_angle_r	subtalar_angle_r	mtp_angle_r	hip_flexion_l	hip_adduction_l	hip_rotation_l	knee_angle_l	knee_angle_l_beta	ankle_angle_l	subtalar_angle_l	mtp_angle_l	lumbar_extension	lumbar_bending	lumbar_rotation	arm_flex_r	arm_add_r	arm_rot_r	elbow_flex_r	pro_sup_r	wrist_flex_r	wrist_dev_r	arm_flex_l	arm_add_l	arm_rot_l	elbow_flex_l	pro_sup_l	wrist_flex_l	wrist_dev_l
     16.53914286	     -1.73936420	     -4.49158181	      5.49875309	      0.94300114	      0.91904063	      0.56316189	     12.76065447	      5.44657764	    -10.12181473	     26.76188265	     26.76188265	     16.94482545	    -10.84495143	     -0.28182086	     28.50138492	    -13.64582111	      1.11311678	     50.52900244	     50.52900244	     17.33090800	    -19.52965917	     22.19434925	    -11.02135665	      4.79661138	      2.69942414	     26.96881428	    -19.29092504	     -3.84991943	     82.27148223	     44.51016259	      0.00000000	      0.00000000	     -1.00560405	    -12.25611341	     -1.76810670	     27.48004608	     47.25942128	      0.00000000	      0.00000000
     16.55828571	     -1.71007182	     -4.36857916	      6.40737055	      0.94065155	      0.91820179	      0.56257510	     12.67959234	      5.25102855	    -10.58744461	     27.15372416	     27.15372416	     17.43254313	    -11.35747416	      0.01494726	     29.30288324	    -13.08459898	      1.53016299	     48.10121625	     48.10121625	     16.64040669	    -19.46893503	     21.27466765	    -10.98925328	      4.70355929	      2.65857784	     29.01666802	    -18.91543333	     -1.93150781	     84.28631789	     44.41584852	      0.00000000	      0.00000000	     -1.84928810	    -12.31860465	     -2.79429029	     27.19996997	     47.38436273	      0.00000000	      0.00000000
     16.57742857	     -1.74325764	     -4.12036126	      7.20656123	      0.93817075	      0.91770076	      0.56175541	     12.54352722	      4.91829489	    -11.00153926	     27.33470374	     27.33470374	     17.72630717	    -11.78426099	      0.03875965	     29.93834892	    -12.30986340	      2.02300419	     45.60475545	     45.60475545	     16.27054680	    -19.39829959	     21.26128954	    -10.97994944	      4.36454313	      3.25085365	     30.81561628	    -18.50860515	     -1.42677644	     85.36837400	     44.37781202	      0.00000000	      0.00000000	     -2.18183348	    -12.32051778	     -3.05273628	     27.01439581	     47.41485109	      0.00000000	      0.00000000
     16.59657143	     -1.72995386	     -3.93051970	      7.98664334	      0.93582837	      0.91751293	      0.56066215	     12.29645535	      4.60071890	    -11.55252575	     27.47508185	     27.47508185	     18.20816991	    -11.80044252	      0.39624387	     30.32537477	    -11.66564540	      2.42283822	     42.98015998	     42.98015998	     14.82644703	    -19.29976724	     18.87515704	    -10.95523068	      4.25810934	      2.92914174	     33.04232698	    -18.25402560	      2.36790072	     87.13238811	     44.26382948	      0.00000000	      0.00000000	     -3.04335520	    -12.08683805	     -5.50781440	     26.72459762	     47.75109480	      0.00000000	      0.00000000
     16.61571429	     -1.81680944	     -3.74182586	      8.70171043	      0.93339877	      0.91762047	      0.55937219	     11.99989940	      4.29321776	    -12.07385951	     27.29362098	     27.29362098	     18.44405670	    -11.80448086	      0.56573571	     30.71623018	    -10.97489322	      2.97927771	     40.51448810	     40.51448810	     13.72131180	    -19.15437201	     17.51077807	    -10.86148704	      4.04354723	      2.55983887	     35.38533976	    -16.80439721	      4.10748749	     87.59137155	     44.44129787	      0.00000000	      0.00000000	     -3.56025067	    -11.06578068	    -13.55370216	     26.14530768	     48.69088649	      0.00000000	      0.00000000
